<?xml version="1.0" encoding="UTF-8"?>
<svg width="28px" height="28px" viewBox="0 0 28 28" version="1.1" xmlns="http://www.w3.org/2000/svg" xmlns:xlink="http://www.w3.org/1999/xlink">
    <!-- Generator: Sketch 50.2 (55047) - http://www.bohemiancoding.com/sketch -->
    <title>icons/categories copy</title>
    <desc>Created with Sketch.</desc>
    <defs>
        <path d="M7.4625494,18.5184189 L7.20083003,18.5184189 C6.53762992,18.5184189 6,17.980789 6,17.3175889 L6,17.3175889 C6,16.6543887 6.53762992,16.1167588 7.20083003,16.1167588 L7.63189723,16.1167588 C8.56737114,16.1167588 9.35960027,15.4269569 9.48829189,14.5003772 L9.67840419,13.1315687 C9.77515748,12.434945 9.28886641,11.7917858 8.59224267,11.6950325 C8.53419505,11.6869704 8.47566014,11.6829249 8.41705532,11.6829249 L8.15533596,11.6829249 C7.49213584,11.6829249 6.95450592,11.1452949 6.95450592,10.4820948 L6.95450592,10.4820948 C6.95450592,9.81889471 7.49213584,9.28126479 8.15533596,9.28126479 L8.58640315,9.28126479 C9.52150452,9.28126479 10.3130507,8.59094107 10.4402058,7.66452531 L10.9150524,4.20492848 C11.009819,3.51448655 11.5997449,3 12.29666,3 L12.29666,3 C12.8824658,3 13.3573552,3.47488939 13.3573552,4.06069513 C13.3573552,4.10894103 13.3540635,4.15713071 13.347503,4.20492848 L12.8935908,7.51200272 C12.7766249,8.36418356 13.3726342,9.1498323 14.2248151,9.2667983 C14.2949991,9.2764314 14.3657587,9.28126479 14.4366007,9.28126479 L14.4782093,9.28126479 C15.4776855,9.28126479 16.3237237,8.54341742 16.4596325,7.55322483 L16.9192026,4.20492848 C17.0139691,3.51448655 17.603895,3 18.3008102,3 L18.3008102,3 C18.886616,3 19.3615053,3.47488939 19.3615053,4.06069513 C19.3615053,4.10894103 19.3582136,4.15713071 19.3516532,4.20492848 L18.8537786,7.83230017 C18.7579875,8.53020689 19.2460986,9.17362611 19.9440054,9.26941723 C20.0014837,9.27730641 20.0594333,9.28126479 20.1174505,9.28126479 L20.3791699,9.28126479 C21.04237,9.28126479 21.5799999,9.81889471 21.5799999,10.4820948 L21.5799999,10.4820948 C21.5799999,11.1452949 21.04237,11.6829249 20.3791699,11.6829249 L19.9481027,11.6829249 C19.0126288,11.6829249 18.2203997,12.3727268 18.091708,13.2993065 L17.9015957,14.6681149 C17.8048424,15.3647387 18.2911335,16.0078979 18.9877573,16.1046512 C19.0458049,16.1127133 19.1043398,16.1167588 19.1629446,16.1167588 L19.424664,16.1167588 C20.0878641,16.1167588 20.625494,16.6543887 20.625494,17.3175889 L20.625494,17.3175889 C20.625494,17.980789 20.0878641,18.5184189 19.424664,18.5184189 L18.9935968,18.5184189 C18.0584954,18.5184189 17.2669492,19.2087426 17.1397941,20.1351584 L16.6649475,23.5947552 C16.570181,24.2851971 15.980255,24.7996837 15.2833399,24.7996837 L15.2833399,24.7996837 C14.6975341,24.7996837 14.2226447,24.3247943 14.2226447,23.7389886 C14.2226447,23.6907427 14.2259364,23.642553 14.2324969,23.5947552 L14.6864091,20.287681 C14.8033751,19.4355001 14.2073657,18.6498514 13.3551848,18.5328854 C13.2850008,18.5232523 13.2142412,18.5184189 13.1433992,18.5184189 L13.1017906,18.5184189 C12.1023144,18.5184189 11.2562762,19.2562663 11.1203674,20.2464589 L10.6607973,23.5947552 C10.5660308,24.2851971 9.97610488,24.7996837 9.27918971,24.7996837 L9.27918971,24.7996837 C8.69338396,24.7996837 8.21849457,24.3247943 8.21849457,23.7389886 C8.21849457,23.6907427 8.22178628,23.642553 8.22834676,23.5947552 L8.7262213,19.9673835 C8.82201242,19.2694768 8.33390128,18.6260576 7.63599456,18.5302665 C7.57851624,18.5223773 7.52056662,18.5184189 7.4625494,18.5184189 Z M12.072491,13.4077881 L11.9419215,14.3478884 C11.8237806,15.1985027 12.4175676,15.9838339 13.2681819,16.1019747 C13.3390611,16.1118191 13.4105353,16.1167588 13.4820948,16.1167588 L13.5265244,16.1167588 C14.5247816,16.1167588 15.3701803,15.3806616 15.507509,14.3918956 L15.6380784,13.4517953 C15.7562193,12.601181 15.1624323,11.8158498 14.3118181,11.697709 C14.2409389,11.6878646 14.1694647,11.6829249 14.0979051,11.6829249 L14.0534755,11.6829249 C13.0552183,11.6829249 12.2098196,12.4190221 12.072491,13.4077881 Z" id="path-1"></path>
    </defs>
    <g id="icons/categories-copy" stroke="none" stroke-width="1" fill="none" fill-rule="evenodd">
        <mask id="mask-2" fill="white">
            <use xlink:href="#path-1"></use>
        </mask>
        <use id="categories" fill="#2BB3CE" xlink:href="#path-1"></use>
    </g>
</svg>