<?xml version="1.0" encoding="UTF-8"?>
<svg width="28px" height="28px" viewBox="0 0 28 28" version="1.1" xmlns="http://www.w3.org/2000/svg" xmlns:xlink="http://www.w3.org/1999/xlink">
    <!-- Generator: Sketch 50.2 (55047) - http://www.bohemiancoding.com/sketch -->
    <title>icons/search</title>
    <desc>Created with Sketch.</desc>
    <defs></defs>
    <g id="icons/search" stroke="none" stroke-width="1" fill="none" fill-rule="evenodd">
        <path d="M14.8963437,17.2976179 C18.4861945,17.2976179 21.3963437,14.3874688 21.3963437,10.7976179 C21.3963437,7.20776706 18.4861945,4.29761793 14.8963437,4.29761793 C11.3064928,4.29761793 8.39634365,7.20776706 8.39634365,10.7976179 C8.39634365,14.3874688 11.3064928,17.2976179 14.8963437,17.2976179 Z M13.8963437,19.2394148 C9.67317352,18.7444869 6.39634365,15.1537247 6.39634365,10.7976179 C6.39634365,6.10319756 10.2019233,2.29761793 14.8963437,2.29761793 C19.590764,2.29761793 23.3963437,6.10319756 23.3963437,10.7976179 C23.3963437,15.1537247 20.1195138,18.7444869 15.8963437,19.2394148 L15.8963437,26.2976179 C15.8963437,26.8499027 15.4486284,27.2976179 14.8963437,27.2976179 C14.3440589,27.2976179 13.8963437,26.8499027 13.8963437,26.2976179 L13.8963437,19.2394148 Z" id="Combined-Shape" fill="#979797" fill-rule="nonzero" transform="translate(14.896344, 14.797618) rotate(-46.000000) translate(-14.896344, -14.797618) "></path>
    </g>
</svg>