<?xml version="1.0" encoding="UTF-8"?>
<svg width="28px" height="28px" viewBox="0 0 28 28" version="1.1" xmlns="http://www.w3.org/2000/svg" xmlns:xlink="http://www.w3.org/1999/xlink">
    <!-- Generator: Sketch 50.2 (55047) - http://www.bohemiancoding.com/sketch -->
    <title>icons/speakers copy</title>
    <desc>Created with Sketch.</desc>
    <defs>
        <path d="M18.8462666,22.0646844 C17.9753333,21.4114844 17.5398666,18.9075511 17.4309999,18.5809511 C16.6538567,18.8401761 16.1408885,19.0216206 15.8920953,19.1252844 C15.3943518,19.3326776 14.4916,19.2329615 14.4916,19.1252844 C14.4916,19.0152281 15.0338483,19.1163109 15.8920953,18.6898178 C17.498654,17.8914622 18.7373999,16.3673289 19.6083333,14.1174178 C20.2615333,13.3190622 20.5518444,12.73844 20.4792666,12.3755511 C20.4792666,11.9400845 21.2413333,9.10955114 21.0235999,8.78295114 L20.2615333,9.21841781 L20.3703999,8.56521781 C20.3703999,6.82335115 20.4792666,5.84355116 19.3905999,4.4282845 L19.9349333,3.33961784 C19.8260666,3.23075117 18.1930666,3.23075117 17.9753333,3.01301784 C17.8664666,2.90415117 19.7171999,2.25095117 19.6083333,2.14208451 C19.4188873,1.9526385 18.0841999,1.9526385 14.4916,2.14208451 C12.0965333,2.26838185 10.6449778,2.81271518 10.1369333,3.7750845 C9.04826665,3.84766228 8.46764443,5.44437338 8.39506666,8.56521781 L8.50393332,9.21841781 L7.95959999,8.78295114 C7.74186666,9.10955114 8.39506666,13.7908178 8.61279999,13.8996845 L9.26599998,14.1174178 L9.48373332,14.6617511 C9.8466222,15.8229956 10.6812666,16.8753733 11.9876666,17.8188844 C11.9876666,18.8349733 11.9513777,19.4518844 11.8788,19.6696178 C11.7699333,20.3228178 11.4433333,20.9760178 10.899,21.4114844 C10.3546666,21.9558177 9.70146665,22.3912844 8.93939999,22.7178844 C8.17733332,23.0444844 7.41526666,23.2622177 6.54433333,23.5888177 L6,23.6976844 C8.28619999,25.2218177 8.50393332,25.6572844 14.4916,25.6572844 C18.4833777,25.6572844 21.0961777,24.9315066 22.3299999,23.4799511 C19.6083333,22.7178844 19.9349333,22.7178844 18.8462666,22.0646844 Z" id="path-1"></path>
    </defs>
    <g id="icons/speakers-copy" stroke="none" stroke-width="1" fill="none" fill-rule="evenodd">
        <mask id="mask-2" fill="white">
            <use xlink:href="#path-1"></use>
        </mask>
        <use id="Shape" fill="#2BB3CE" fill-rule="nonzero" xlink:href="#path-1"></use>
    </g>
</svg>